<svg width="32" height="32" viewBox="0 0 32 32" fill="none" xmlns="http://www.w3.org/2000/svg">
<rect width="32" height="32" rx="5" fill="#08222A"/>
<path d="M12.9062 8.625V10.5H20.0938V8.625C20.0938 8.41875 19.932 8.25 19.7344 8.25H13.2656C13.068 8.25 12.9062 8.41875 12.9062 8.625ZM10.75 10.5V8.625C10.75 7.17656 11.8775 6 13.2656 6H19.7344C21.1225 6 22.25 7.17656 22.25 8.625V10.5H23.5123C24.0828 10.5 24.6309 10.7391 25.0352 11.1609L27.3666 13.5938C27.7709 14.0156 28 14.5875 28 15.1828V19.5H22.25V18C22.25 17.1703 21.6076 16.5 20.8125 16.5C20.0174 16.5 19.375 17.1703 19.375 18V19.5H13.625V18C13.625 17.1703 12.9826 16.5 12.1875 16.5C11.3924 16.5 10.75 17.1703 10.75 18V19.5H5V15.1828C5 14.5875 5.2291 14.0156 5.6334 13.5938L7.96484 11.1609C8.36914 10.7391 8.91719 10.5 9.4877 10.5H10.75ZM5 24V21H10.75C10.75 21.8297 11.3924 22.5 12.1875 22.5C12.9826 22.5 13.625 21.8297 13.625 21H19.375C19.375 21.8297 20.0174 22.5 20.8125 22.5C21.6076 22.5 22.25 21.8297 22.25 21H28V24C28 25.6547 26.7107 27 25.125 27H7.875C6.28926 27 5 25.6547 5 24Z" fill="#F5F5F5"/>
</svg>
